<mxfile host="app.diagrams.net" modified="2024-05-01T13:39:49.984Z" agent="Mozilla/5.0 (Windows NT 10.0; Win64; x64; rv:125.0) Gecko/20100101 Firefox/125.0" etag="q4I6NWvhjl9qaNpFXL_e" version="24.3.1" type="github">
  <diagram id="C5RBs43oDa-KdzZeNtuy" name="Page-1">
    <mxGraphModel dx="819" dy="431" grid="1" gridSize="10" guides="1" tooltips="1" connect="1" arrows="1" fold="1" page="1" pageScale="1" pageWidth="1654" pageHeight="1169" math="0" shadow="0">
      <root>
        <mxCell id="WIyWlLk6GJQsqaUBKTNV-0" />
        <mxCell id="WIyWlLk6GJQsqaUBKTNV-1" parent="WIyWlLk6GJQsqaUBKTNV-0" />
        <mxCell id="r_dv8OJ-SXDnoj9roJnh-4" style="edgeStyle=orthogonalEdgeStyle;rounded=0;orthogonalLoop=1;jettySize=auto;html=1;exitX=1;exitY=0.25;exitDx=0;exitDy=0;fillColor=#d5e8d4;strokeColor=#82b366;entryX=0;entryY=0.5;entryDx=0;entryDy=0;" edge="1" parent="WIyWlLk6GJQsqaUBKTNV-1" source="r_dv8OJ-SXDnoj9roJnh-2" target="r_dv8OJ-SXDnoj9roJnh-6">
          <mxGeometry relative="1" as="geometry">
            <mxPoint x="960" y="405" as="targetPoint" />
          </mxGeometry>
        </mxCell>
        <mxCell id="r_dv8OJ-SXDnoj9roJnh-5" value="jouable ?" style="edgeLabel;html=1;align=center;verticalAlign=middle;resizable=0;points=[];" vertex="1" connectable="0" parent="r_dv8OJ-SXDnoj9roJnh-4">
          <mxGeometry relative="1" as="geometry">
            <mxPoint as="offset" />
          </mxGeometry>
        </mxCell>
        <mxCell id="r_dv8OJ-SXDnoj9roJnh-8" style="edgeStyle=orthogonalEdgeStyle;rounded=0;orthogonalLoop=1;jettySize=auto;html=1;exitX=1;exitY=0.75;exitDx=0;exitDy=0;entryX=0;entryY=0.5;entryDx=0;entryDy=0;fillColor=#f8cecc;strokeColor=#b85450;" edge="1" parent="WIyWlLk6GJQsqaUBKTNV-1" source="r_dv8OJ-SXDnoj9roJnh-2" target="r_dv8OJ-SXDnoj9roJnh-7">
          <mxGeometry relative="1" as="geometry" />
        </mxCell>
        <mxCell id="r_dv8OJ-SXDnoj9roJnh-9" value="non jouable ?" style="edgeLabel;html=1;align=center;verticalAlign=middle;resizable=0;points=[];" vertex="1" connectable="0" parent="r_dv8OJ-SXDnoj9roJnh-8">
          <mxGeometry relative="1" as="geometry">
            <mxPoint as="offset" />
          </mxGeometry>
        </mxCell>
        <mxCell id="r_dv8OJ-SXDnoj9roJnh-2" value="Vérifier les colonnes jouables" style="rounded=1;whiteSpace=wrap;html=1;" vertex="1" parent="WIyWlLk6GJQsqaUBKTNV-1">
          <mxGeometry x="730" y="395" width="110" height="60" as="geometry" />
        </mxCell>
        <mxCell id="r_dv8OJ-SXDnoj9roJnh-12" style="edgeStyle=orthogonalEdgeStyle;rounded=0;orthogonalLoop=1;jettySize=auto;html=1;exitX=1;exitY=0.5;exitDx=0;exitDy=0;entryX=0;entryY=0.5;entryDx=0;entryDy=0;" edge="1" parent="WIyWlLk6GJQsqaUBKTNV-1" source="r_dv8OJ-SXDnoj9roJnh-6" target="r_dv8OJ-SXDnoj9roJnh-11">
          <mxGeometry relative="1" as="geometry" />
        </mxCell>
        <mxCell id="r_dv8OJ-SXDnoj9roJnh-6" value="Ajoute la colonne aux colonnes valides" style="rounded=1;whiteSpace=wrap;html=1;fillColor=#d5e8d4;strokeColor=#82b366;" vertex="1" parent="WIyWlLk6GJQsqaUBKTNV-1">
          <mxGeometry x="920" y="350" width="120" height="60" as="geometry" />
        </mxCell>
        <mxCell id="r_dv8OJ-SXDnoj9roJnh-7" value="Ignore la colonne" style="rounded=1;whiteSpace=wrap;html=1;fillColor=#f8cecc;strokeColor=#b85450;" vertex="1" parent="WIyWlLk6GJQsqaUBKTNV-1">
          <mxGeometry x="920" y="440" width="120" height="60" as="geometry" />
        </mxCell>
        <mxCell id="r_dv8OJ-SXDnoj9roJnh-17" style="edgeStyle=orthogonalEdgeStyle;rounded=0;orthogonalLoop=1;jettySize=auto;html=1;exitX=1;exitY=0.5;exitDx=0;exitDy=0;entryX=0;entryY=0.5;entryDx=0;entryDy=0;fillColor=#d5e8d4;strokeColor=#82b366;" edge="1" parent="WIyWlLk6GJQsqaUBKTNV-1" source="r_dv8OJ-SXDnoj9roJnh-11" target="r_dv8OJ-SXDnoj9roJnh-16">
          <mxGeometry relative="1" as="geometry" />
        </mxCell>
        <mxCell id="r_dv8OJ-SXDnoj9roJnh-18" value="oui ?" style="edgeLabel;html=1;align=center;verticalAlign=middle;resizable=0;points=[];" vertex="1" connectable="0" parent="r_dv8OJ-SXDnoj9roJnh-17">
          <mxGeometry relative="1" as="geometry">
            <mxPoint as="offset" />
          </mxGeometry>
        </mxCell>
        <mxCell id="r_dv8OJ-SXDnoj9roJnh-45" style="edgeStyle=orthogonalEdgeStyle;rounded=0;orthogonalLoop=1;jettySize=auto;html=1;exitX=0.5;exitY=1;exitDx=0;exitDy=0;entryX=0.5;entryY=0;entryDx=0;entryDy=0;fillColor=#f8cecc;strokeColor=#b85450;" edge="1" parent="WIyWlLk6GJQsqaUBKTNV-1" source="r_dv8OJ-SXDnoj9roJnh-11" target="r_dv8OJ-SXDnoj9roJnh-22">
          <mxGeometry relative="1" as="geometry" />
        </mxCell>
        <mxCell id="r_dv8OJ-SXDnoj9roJnh-46" value="non ?" style="edgeLabel;html=1;align=center;verticalAlign=middle;resizable=0;points=[];" vertex="1" connectable="0" parent="r_dv8OJ-SXDnoj9roJnh-45">
          <mxGeometry relative="1" as="geometry">
            <mxPoint as="offset" />
          </mxGeometry>
        </mxCell>
        <mxCell id="r_dv8OJ-SXDnoj9roJnh-11" value="Vérifier les victoires immédiates" style="rounded=1;whiteSpace=wrap;html=1;" vertex="1" parent="WIyWlLk6GJQsqaUBKTNV-1">
          <mxGeometry x="1090" y="350" width="120" height="60" as="geometry" />
        </mxCell>
        <mxCell id="r_dv8OJ-SXDnoj9roJnh-16" value="Jouer le coup pour la victoire" style="rounded=1;whiteSpace=wrap;html=1;fillColor=#d5e8d4;strokeColor=#82b366;" vertex="1" parent="WIyWlLk6GJQsqaUBKTNV-1">
          <mxGeometry x="1260" y="350" width="120" height="60" as="geometry" />
        </mxCell>
        <mxCell id="r_dv8OJ-SXDnoj9roJnh-25" style="edgeStyle=orthogonalEdgeStyle;rounded=0;orthogonalLoop=1;jettySize=auto;html=1;exitX=1;exitY=0.5;exitDx=0;exitDy=0;entryX=0;entryY=0.5;entryDx=0;entryDy=0;fillColor=#d5e8d4;strokeColor=#82b366;" edge="1" parent="WIyWlLk6GJQsqaUBKTNV-1" source="r_dv8OJ-SXDnoj9roJnh-22" target="r_dv8OJ-SXDnoj9roJnh-24">
          <mxGeometry relative="1" as="geometry" />
        </mxCell>
        <mxCell id="r_dv8OJ-SXDnoj9roJnh-26" value="oui ?" style="edgeLabel;html=1;align=center;verticalAlign=middle;resizable=0;points=[];" vertex="1" connectable="0" parent="r_dv8OJ-SXDnoj9roJnh-25">
          <mxGeometry relative="1" as="geometry">
            <mxPoint as="offset" />
          </mxGeometry>
        </mxCell>
        <mxCell id="r_dv8OJ-SXDnoj9roJnh-52" style="edgeStyle=orthogonalEdgeStyle;rounded=0;orthogonalLoop=1;jettySize=auto;html=1;exitX=0.5;exitY=1;exitDx=0;exitDy=0;entryX=0.5;entryY=0;entryDx=0;entryDy=0;fillColor=#f8cecc;strokeColor=#b85450;" edge="1" parent="WIyWlLk6GJQsqaUBKTNV-1" source="r_dv8OJ-SXDnoj9roJnh-22" target="r_dv8OJ-SXDnoj9roJnh-51">
          <mxGeometry relative="1" as="geometry" />
        </mxCell>
        <mxCell id="r_dv8OJ-SXDnoj9roJnh-53" value="non ?" style="edgeLabel;html=1;align=center;verticalAlign=middle;resizable=0;points=[];" vertex="1" connectable="0" parent="r_dv8OJ-SXDnoj9roJnh-52">
          <mxGeometry relative="1" as="geometry">
            <mxPoint as="offset" />
          </mxGeometry>
        </mxCell>
        <mxCell id="r_dv8OJ-SXDnoj9roJnh-22" value="Vérifier les défaites immédiates" style="rounded=1;whiteSpace=wrap;html=1;" vertex="1" parent="WIyWlLk6GJQsqaUBKTNV-1">
          <mxGeometry x="1090" y="540" width="120" height="60" as="geometry" />
        </mxCell>
        <mxCell id="r_dv8OJ-SXDnoj9roJnh-24" value="Jouer le coup pour bloquer la victoire adverse" style="rounded=1;whiteSpace=wrap;html=1;fillColor=#d5e8d4;strokeColor=#82b366;" vertex="1" parent="WIyWlLk6GJQsqaUBKTNV-1">
          <mxGeometry x="1260" y="540" width="120" height="60" as="geometry" />
        </mxCell>
        <mxCell id="r_dv8OJ-SXDnoj9roJnh-41" style="edgeStyle=orthogonalEdgeStyle;rounded=0;orthogonalLoop=1;jettySize=auto;html=1;exitX=0;exitY=0.5;exitDx=0;exitDy=0;entryX=0;entryY=0.5;entryDx=0;entryDy=0;fillColor=#e1d5e7;strokeColor=#9673a6;" edge="1" parent="WIyWlLk6GJQsqaUBKTNV-1" source="r_dv8OJ-SXDnoj9roJnh-39" target="r_dv8OJ-SXDnoj9roJnh-40">
          <mxGeometry relative="1" as="geometry" />
        </mxCell>
        <mxCell id="r_dv8OJ-SXDnoj9roJnh-39" value="ligne_gagnante" style="rounded=0;whiteSpace=wrap;html=1;fillColor=#e1d5e7;strokeColor=#9673a6;fontStyle=2" vertex="1" parent="WIyWlLk6GJQsqaUBKTNV-1">
          <mxGeometry x="1090" y="230" width="110" height="30" as="geometry" />
        </mxCell>
        <mxCell id="r_dv8OJ-SXDnoj9roJnh-40" value="instant_victoire" style="rounded=0;whiteSpace=wrap;html=1;fillColor=#e1d5e7;strokeColor=#9673a6;fontStyle=2" vertex="1" parent="WIyWlLk6GJQsqaUBKTNV-1">
          <mxGeometry x="1090" y="280" width="110" height="30" as="geometry" />
        </mxCell>
        <mxCell id="r_dv8OJ-SXDnoj9roJnh-42" style="edgeStyle=orthogonalEdgeStyle;rounded=0;orthogonalLoop=1;jettySize=auto;html=1;exitX=0.5;exitY=1;exitDx=0;exitDy=0;entryX=0.453;entryY=0.016;entryDx=0;entryDy=0;entryPerimeter=0;fillColor=#e1d5e7;strokeColor=#9673a6;" edge="1" parent="WIyWlLk6GJQsqaUBKTNV-1" source="r_dv8OJ-SXDnoj9roJnh-40" target="r_dv8OJ-SXDnoj9roJnh-11">
          <mxGeometry relative="1" as="geometry" />
        </mxCell>
        <mxCell id="r_dv8OJ-SXDnoj9roJnh-44" style="edgeStyle=orthogonalEdgeStyle;rounded=0;orthogonalLoop=1;jettySize=auto;html=1;exitX=0.5;exitY=1;exitDx=0;exitDy=0;entryX=0.5;entryY=0;entryDx=0;entryDy=0;fillColor=#e1d5e7;strokeColor=#9673a6;" edge="1" parent="WIyWlLk6GJQsqaUBKTNV-1" source="r_dv8OJ-SXDnoj9roJnh-43" target="r_dv8OJ-SXDnoj9roJnh-2">
          <mxGeometry relative="1" as="geometry" />
        </mxCell>
        <mxCell id="r_dv8OJ-SXDnoj9roJnh-43" value="coup_legal" style="rounded=0;whiteSpace=wrap;html=1;fillColor=#e1d5e7;strokeColor=#9673a6;fontStyle=2" vertex="1" parent="WIyWlLk6GJQsqaUBKTNV-1">
          <mxGeometry x="730" y="330" width="110" height="30" as="geometry" />
        </mxCell>
        <mxCell id="r_dv8OJ-SXDnoj9roJnh-49" style="edgeStyle=orthogonalEdgeStyle;rounded=0;orthogonalLoop=1;jettySize=auto;html=1;exitX=0;exitY=0.5;exitDx=0;exitDy=0;entryX=0;entryY=0.5;entryDx=0;entryDy=0;fillColor=#e1d5e7;strokeColor=#9673a6;" edge="1" parent="WIyWlLk6GJQsqaUBKTNV-1" source="r_dv8OJ-SXDnoj9roJnh-47" target="r_dv8OJ-SXDnoj9roJnh-48">
          <mxGeometry relative="1" as="geometry" />
        </mxCell>
        <mxCell id="r_dv8OJ-SXDnoj9roJnh-47" value="ligne_gagnante" style="rounded=0;whiteSpace=wrap;html=1;fillColor=#e1d5e7;strokeColor=#9673a6;fontStyle=2" vertex="1" parent="WIyWlLk6GJQsqaUBKTNV-1">
          <mxGeometry x="930" y="530" width="110" height="30" as="geometry" />
        </mxCell>
        <mxCell id="r_dv8OJ-SXDnoj9roJnh-50" style="edgeStyle=orthogonalEdgeStyle;rounded=0;orthogonalLoop=1;jettySize=auto;html=1;exitX=1;exitY=0.5;exitDx=0;exitDy=0;entryX=0;entryY=0.5;entryDx=0;entryDy=0;fillColor=#e1d5e7;strokeColor=#9673a6;" edge="1" parent="WIyWlLk6GJQsqaUBKTNV-1" source="r_dv8OJ-SXDnoj9roJnh-48" target="r_dv8OJ-SXDnoj9roJnh-22">
          <mxGeometry relative="1" as="geometry" />
        </mxCell>
        <mxCell id="r_dv8OJ-SXDnoj9roJnh-48" value="instant_defaite" style="rounded=0;whiteSpace=wrap;html=1;fillColor=#e1d5e7;strokeColor=#9673a6;fontStyle=2" vertex="1" parent="WIyWlLk6GJQsqaUBKTNV-1">
          <mxGeometry x="930" y="580" width="110" height="30" as="geometry" />
        </mxCell>
        <mxCell id="r_dv8OJ-SXDnoj9roJnh-51" value="Etude du meilleur coup" style="rounded=1;whiteSpace=wrap;html=1;" vertex="1" parent="WIyWlLk6GJQsqaUBKTNV-1">
          <mxGeometry x="1090" y="705" width="120" height="60" as="geometry" />
        </mxCell>
        <mxCell id="r_dv8OJ-SXDnoj9roJnh-56" style="edgeStyle=orthogonalEdgeStyle;rounded=0;orthogonalLoop=1;jettySize=auto;html=1;exitX=1;exitY=0.5;exitDx=0;exitDy=0;entryX=0;entryY=0.5;entryDx=0;entryDy=0;fillColor=#d5e8d4;strokeColor=#82b366;" edge="1" parent="WIyWlLk6GJQsqaUBKTNV-1" source="r_dv8OJ-SXDnoj9roJnh-54" target="r_dv8OJ-SXDnoj9roJnh-55">
          <mxGeometry relative="1" as="geometry" />
        </mxCell>
        <mxCell id="r_dv8OJ-SXDnoj9roJnh-57" value="oui" style="edgeLabel;html=1;align=center;verticalAlign=middle;resizable=0;points=[];" vertex="1" connectable="0" parent="r_dv8OJ-SXDnoj9roJnh-56">
          <mxGeometry relative="1" as="geometry">
            <mxPoint as="offset" />
          </mxGeometry>
        </mxCell>
        <mxCell id="r_dv8OJ-SXDnoj9roJnh-70" style="edgeStyle=orthogonalEdgeStyle;rounded=0;orthogonalLoop=1;jettySize=auto;html=1;exitX=0.5;exitY=1;exitDx=0;exitDy=0;entryX=0.5;entryY=0;entryDx=0;entryDy=0;fillColor=#f8cecc;strokeColor=#b85450;" edge="1" parent="WIyWlLk6GJQsqaUBKTNV-1" source="r_dv8OJ-SXDnoj9roJnh-54" target="r_dv8OJ-SXDnoj9roJnh-66">
          <mxGeometry relative="1" as="geometry">
            <mxPoint x="290" y="150" as="targetPoint" />
          </mxGeometry>
        </mxCell>
        <mxCell id="r_dv8OJ-SXDnoj9roJnh-71" value="non" style="edgeLabel;html=1;align=center;verticalAlign=middle;resizable=0;points=[];" vertex="1" connectable="0" parent="r_dv8OJ-SXDnoj9roJnh-70">
          <mxGeometry relative="1" as="geometry">
            <mxPoint as="offset" />
          </mxGeometry>
        </mxCell>
        <mxCell id="r_dv8OJ-SXDnoj9roJnh-54" value="Est-ce que c&#39;est le 1er coup ?" style="rounded=1;whiteSpace=wrap;html=1;" vertex="1" parent="WIyWlLk6GJQsqaUBKTNV-1">
          <mxGeometry x="230" y="40" width="120" height="60" as="geometry" />
        </mxCell>
        <mxCell id="r_dv8OJ-SXDnoj9roJnh-59" style="edgeStyle=orthogonalEdgeStyle;rounded=0;orthogonalLoop=1;jettySize=auto;html=1;exitX=1;exitY=0.25;exitDx=0;exitDy=0;entryX=0;entryY=0.25;entryDx=0;entryDy=0;fillColor=#d5e8d4;strokeColor=#82b366;" edge="1" parent="WIyWlLk6GJQsqaUBKTNV-1" source="r_dv8OJ-SXDnoj9roJnh-55" target="r_dv8OJ-SXDnoj9roJnh-58">
          <mxGeometry relative="1" as="geometry" />
        </mxCell>
        <mxCell id="r_dv8OJ-SXDnoj9roJnh-60" value="oui" style="edgeLabel;html=1;align=center;verticalAlign=middle;resizable=0;points=[];" vertex="1" connectable="0" parent="r_dv8OJ-SXDnoj9roJnh-59">
          <mxGeometry relative="1" as="geometry">
            <mxPoint as="offset" />
          </mxGeometry>
        </mxCell>
        <mxCell id="r_dv8OJ-SXDnoj9roJnh-62" style="edgeStyle=orthogonalEdgeStyle;rounded=0;orthogonalLoop=1;jettySize=auto;html=1;exitX=0.5;exitY=1;exitDx=0;exitDy=0;entryX=0.5;entryY=0;entryDx=0;entryDy=0;fillColor=#f8cecc;strokeColor=#b85450;" edge="1" parent="WIyWlLk6GJQsqaUBKTNV-1" source="r_dv8OJ-SXDnoj9roJnh-55" target="r_dv8OJ-SXDnoj9roJnh-61">
          <mxGeometry relative="1" as="geometry" />
        </mxCell>
        <mxCell id="r_dv8OJ-SXDnoj9roJnh-63" value="non" style="edgeLabel;html=1;align=center;verticalAlign=middle;resizable=0;points=[];" vertex="1" connectable="0" parent="r_dv8OJ-SXDnoj9roJnh-62">
          <mxGeometry x="-0.0748" relative="1" as="geometry">
            <mxPoint as="offset" />
          </mxGeometry>
        </mxCell>
        <mxCell id="r_dv8OJ-SXDnoj9roJnh-55" value="Est-ce qu&#39;on commence ?" style="rounded=1;whiteSpace=wrap;html=1;" vertex="1" parent="WIyWlLk6GJQsqaUBKTNV-1">
          <mxGeometry x="420" y="40" width="120" height="60" as="geometry" />
        </mxCell>
        <mxCell id="r_dv8OJ-SXDnoj9roJnh-82" style="edgeStyle=orthogonalEdgeStyle;rounded=0;orthogonalLoop=1;jettySize=auto;html=1;exitX=0.5;exitY=0;exitDx=0;exitDy=0;entryX=0.5;entryY=0;entryDx=0;entryDy=0;" edge="1" parent="WIyWlLk6GJQsqaUBKTNV-1" source="r_dv8OJ-SXDnoj9roJnh-58" target="r_dv8OJ-SXDnoj9roJnh-54">
          <mxGeometry relative="1" as="geometry" />
        </mxCell>
        <mxCell id="r_dv8OJ-SXDnoj9roJnh-58" value="Joue sur &lt;br&gt;la colonne 3" style="rounded=1;whiteSpace=wrap;html=1;fillColor=#d5e8d4;strokeColor=#82b366;" vertex="1" parent="WIyWlLk6GJQsqaUBKTNV-1">
          <mxGeometry x="610" y="40" width="120" height="60" as="geometry" />
        </mxCell>
        <mxCell id="r_dv8OJ-SXDnoj9roJnh-64" style="edgeStyle=orthogonalEdgeStyle;rounded=0;orthogonalLoop=1;jettySize=auto;html=1;exitX=1;exitY=0.5;exitDx=0;exitDy=0;entryX=0;entryY=0.75;entryDx=0;entryDy=0;fillColor=#f8cecc;strokeColor=#b85450;" edge="1" parent="WIyWlLk6GJQsqaUBKTNV-1" source="r_dv8OJ-SXDnoj9roJnh-61" target="r_dv8OJ-SXDnoj9roJnh-58">
          <mxGeometry relative="1" as="geometry" />
        </mxCell>
        <mxCell id="r_dv8OJ-SXDnoj9roJnh-65" value="non" style="edgeLabel;html=1;align=center;verticalAlign=middle;resizable=0;points=[];" vertex="1" connectable="0" parent="r_dv8OJ-SXDnoj9roJnh-64">
          <mxGeometry relative="1" as="geometry">
            <mxPoint as="offset" />
          </mxGeometry>
        </mxCell>
        <mxCell id="r_dv8OJ-SXDnoj9roJnh-72" style="edgeStyle=orthogonalEdgeStyle;rounded=0;orthogonalLoop=1;jettySize=auto;html=1;exitX=0;exitY=0.5;exitDx=0;exitDy=0;entryX=1;entryY=0.5;entryDx=0;entryDy=0;fillColor=#d5e8d4;strokeColor=#82b366;" edge="1" parent="WIyWlLk6GJQsqaUBKTNV-1" source="r_dv8OJ-SXDnoj9roJnh-61" target="r_dv8OJ-SXDnoj9roJnh-66">
          <mxGeometry relative="1" as="geometry" />
        </mxCell>
        <mxCell id="r_dv8OJ-SXDnoj9roJnh-73" value="oui" style="edgeLabel;html=1;align=center;verticalAlign=middle;resizable=0;points=[];" vertex="1" connectable="0" parent="r_dv8OJ-SXDnoj9roJnh-72">
          <mxGeometry relative="1" as="geometry">
            <mxPoint as="offset" />
          </mxGeometry>
        </mxCell>
        <mxCell id="r_dv8OJ-SXDnoj9roJnh-61" value="Est-ce que l&#39;adversaire a joué sur la colonne 3 ?" style="rounded=1;whiteSpace=wrap;html=1;" vertex="1" parent="WIyWlLk6GJQsqaUBKTNV-1">
          <mxGeometry x="420" y="150" width="120" height="60" as="geometry" />
        </mxCell>
        <mxCell id="r_dv8OJ-SXDnoj9roJnh-75" style="edgeStyle=orthogonalEdgeStyle;rounded=0;orthogonalLoop=1;jettySize=auto;html=1;exitX=0;exitY=0.5;exitDx=0;exitDy=0;entryX=0.5;entryY=0;entryDx=0;entryDy=0;fillColor=#d5e8d4;strokeColor=#82b366;" edge="1" parent="WIyWlLk6GJQsqaUBKTNV-1" source="r_dv8OJ-SXDnoj9roJnh-66" target="r_dv8OJ-SXDnoj9roJnh-74">
          <mxGeometry relative="1" as="geometry" />
        </mxCell>
        <mxCell id="r_dv8OJ-SXDnoj9roJnh-76" value="oui" style="edgeLabel;html=1;align=center;verticalAlign=middle;resizable=0;points=[];" vertex="1" connectable="0" parent="r_dv8OJ-SXDnoj9roJnh-75">
          <mxGeometry relative="1" as="geometry">
            <mxPoint as="offset" />
          </mxGeometry>
        </mxCell>
        <mxCell id="r_dv8OJ-SXDnoj9roJnh-80" style="edgeStyle=orthogonalEdgeStyle;rounded=0;orthogonalLoop=1;jettySize=auto;html=1;exitX=0.5;exitY=1;exitDx=0;exitDy=0;entryX=0.5;entryY=0;entryDx=0;entryDy=0;fillColor=#f8cecc;strokeColor=#b85450;" edge="1" parent="WIyWlLk6GJQsqaUBKTNV-1" source="r_dv8OJ-SXDnoj9roJnh-66" target="r_dv8OJ-SXDnoj9roJnh-79">
          <mxGeometry relative="1" as="geometry" />
        </mxCell>
        <mxCell id="r_dv8OJ-SXDnoj9roJnh-81" value="non" style="edgeLabel;html=1;align=center;verticalAlign=middle;resizable=0;points=[];" vertex="1" connectable="0" parent="r_dv8OJ-SXDnoj9roJnh-80">
          <mxGeometry relative="1" as="geometry">
            <mxPoint as="offset" />
          </mxGeometry>
        </mxCell>
        <mxCell id="r_dv8OJ-SXDnoj9roJnh-66" value="Est-ce que &lt;br&gt;la case(1,3) est remplie ?" style="rounded=1;whiteSpace=wrap;html=1;" vertex="1" parent="WIyWlLk6GJQsqaUBKTNV-1">
          <mxGeometry x="230" y="150" width="120" height="60" as="geometry" />
        </mxCell>
        <mxCell id="r_dv8OJ-SXDnoj9roJnh-91" style="edgeStyle=orthogonalEdgeStyle;rounded=0;orthogonalLoop=1;jettySize=auto;html=1;exitX=1;exitY=0.5;exitDx=0;exitDy=0;entryX=0;entryY=0.5;entryDx=0;entryDy=0;" edge="1" parent="WIyWlLk6GJQsqaUBKTNV-1" source="r_dv8OJ-SXDnoj9roJnh-74" target="r_dv8OJ-SXDnoj9roJnh-2">
          <mxGeometry relative="1" as="geometry" />
        </mxCell>
        <mxCell id="r_dv8OJ-SXDnoj9roJnh-74" value="Logique de jeu normale" style="rounded=1;whiteSpace=wrap;html=1;" vertex="1" parent="WIyWlLk6GJQsqaUBKTNV-1">
          <mxGeometry x="50" y="395" width="120" height="60" as="geometry" />
        </mxCell>
        <mxCell id="r_dv8OJ-SXDnoj9roJnh-86" style="edgeStyle=orthogonalEdgeStyle;rounded=0;orthogonalLoop=1;jettySize=auto;html=1;exitX=1;exitY=0.5;exitDx=0;exitDy=0;entryX=0;entryY=0.5;entryDx=0;entryDy=0;fillColor=#d5e8d4;strokeColor=#82b366;" edge="1" parent="WIyWlLk6GJQsqaUBKTNV-1" source="r_dv8OJ-SXDnoj9roJnh-79" target="r_dv8OJ-SXDnoj9roJnh-85">
          <mxGeometry relative="1" as="geometry" />
        </mxCell>
        <mxCell id="r_dv8OJ-SXDnoj9roJnh-87" value="oui" style="edgeLabel;html=1;align=center;verticalAlign=middle;resizable=0;points=[];" vertex="1" connectable="0" parent="r_dv8OJ-SXDnoj9roJnh-86">
          <mxGeometry x="-0.1843" y="1" relative="1" as="geometry">
            <mxPoint as="offset" />
          </mxGeometry>
        </mxCell>
        <mxCell id="r_dv8OJ-SXDnoj9roJnh-88" style="edgeStyle=orthogonalEdgeStyle;rounded=0;orthogonalLoop=1;jettySize=auto;html=1;exitX=0.5;exitY=1;exitDx=0;exitDy=0;entryX=0.5;entryY=1;entryDx=0;entryDy=0;fillColor=#f8cecc;strokeColor=#b85450;" edge="1" parent="WIyWlLk6GJQsqaUBKTNV-1" source="r_dv8OJ-SXDnoj9roJnh-79" target="r_dv8OJ-SXDnoj9roJnh-58">
          <mxGeometry relative="1" as="geometry" />
        </mxCell>
        <mxCell id="r_dv8OJ-SXDnoj9roJnh-89" value="non" style="edgeLabel;html=1;align=center;verticalAlign=middle;resizable=0;points=[];" vertex="1" connectable="0" parent="r_dv8OJ-SXDnoj9roJnh-88">
          <mxGeometry relative="1" as="geometry">
            <mxPoint as="offset" />
          </mxGeometry>
        </mxCell>
        <mxCell id="r_dv8OJ-SXDnoj9roJnh-79" value="Est-ce que l&#39;adversaire a 2 pions sur la ligne 5, côté à côte, avec une case vide de chaque côté des pions ?" style="rounded=1;whiteSpace=wrap;html=1;" vertex="1" parent="WIyWlLk6GJQsqaUBKTNV-1">
          <mxGeometry x="210" y="260" width="160" height="80" as="geometry" />
        </mxCell>
        <mxCell id="r_dv8OJ-SXDnoj9roJnh-83" value="" style="endArrow=classic;html=1;rounded=0;entryX=0;entryY=0.5;entryDx=0;entryDy=0;" edge="1" parent="WIyWlLk6GJQsqaUBKTNV-1" target="r_dv8OJ-SXDnoj9roJnh-54">
          <mxGeometry width="50" height="50" relative="1" as="geometry">
            <mxPoint x="150" y="70" as="sourcePoint" />
            <mxPoint x="200" y="10" as="targetPoint" />
          </mxGeometry>
        </mxCell>
        <mxCell id="r_dv8OJ-SXDnoj9roJnh-84" value="Début de &lt;br&gt;la partie" style="edgeLabel;html=1;align=center;verticalAlign=middle;resizable=0;points=[];" vertex="1" connectable="0" parent="r_dv8OJ-SXDnoj9roJnh-83">
          <mxGeometry x="-0.4902" y="-3" relative="1" as="geometry">
            <mxPoint x="-10" y="-3" as="offset" />
          </mxGeometry>
        </mxCell>
        <mxCell id="r_dv8OJ-SXDnoj9roJnh-85" value="Bloquer le piège en jouant la colonne la plus proche du centre." style="rounded=1;whiteSpace=wrap;html=1;" vertex="1" parent="WIyWlLk6GJQsqaUBKTNV-1">
          <mxGeometry x="415" y="265" width="130" height="70" as="geometry" />
        </mxCell>
        <mxCell id="r_dv8OJ-SXDnoj9roJnh-93" value="" style="endArrow=none;html=1;rounded=0;exitX=1;exitY=0.5;exitDx=0;exitDy=0;" edge="1" parent="WIyWlLk6GJQsqaUBKTNV-1" source="r_dv8OJ-SXDnoj9roJnh-85">
          <mxGeometry width="50" height="50" relative="1" as="geometry">
            <mxPoint x="580" y="300" as="sourcePoint" />
            <mxPoint x="760" y="300" as="targetPoint" />
          </mxGeometry>
        </mxCell>
        <mxCell id="r_dv8OJ-SXDnoj9roJnh-94" value="" style="endArrow=none;html=1;rounded=0;" edge="1" parent="WIyWlLk6GJQsqaUBKTNV-1">
          <mxGeometry width="50" height="50" relative="1" as="geometry">
            <mxPoint x="760" y="300" as="sourcePoint" />
            <mxPoint x="760" y="20" as="targetPoint" />
          </mxGeometry>
        </mxCell>
        <mxCell id="r_dv8OJ-SXDnoj9roJnh-95" value="" style="endArrow=classic;html=1;rounded=0;" edge="1" parent="WIyWlLk6GJQsqaUBKTNV-1">
          <mxGeometry width="50" height="50" relative="1" as="geometry">
            <mxPoint x="760" y="20" as="sourcePoint" />
            <mxPoint x="670" y="20" as="targetPoint" />
          </mxGeometry>
        </mxCell>
        <mxCell id="r_dv8OJ-SXDnoj9roJnh-98" style="edgeStyle=orthogonalEdgeStyle;rounded=0;orthogonalLoop=1;jettySize=auto;html=1;exitX=0.5;exitY=1;exitDx=0;exitDy=0;entryX=0.5;entryY=0;entryDx=0;entryDy=0;fillColor=#d5e8d4;strokeColor=#82b366;" edge="1" parent="WIyWlLk6GJQsqaUBKTNV-1" source="r_dv8OJ-SXDnoj9roJnh-96" target="r_dv8OJ-SXDnoj9roJnh-97">
          <mxGeometry relative="1" as="geometry" />
        </mxCell>
        <mxCell id="r_dv8OJ-SXDnoj9roJnh-99" value="oui" style="edgeLabel;html=1;align=center;verticalAlign=middle;resizable=0;points=[];" vertex="1" connectable="0" parent="r_dv8OJ-SXDnoj9roJnh-98">
          <mxGeometry relative="1" as="geometry">
            <mxPoint as="offset" />
          </mxGeometry>
        </mxCell>
        <mxCell id="r_dv8OJ-SXDnoj9roJnh-102" style="edgeStyle=orthogonalEdgeStyle;rounded=0;orthogonalLoop=1;jettySize=auto;html=1;exitX=1;exitY=0.5;exitDx=0;exitDy=0;entryX=0;entryY=0.5;entryDx=0;entryDy=0;fillColor=#f8cecc;strokeColor=#b85450;" edge="1" parent="WIyWlLk6GJQsqaUBKTNV-1" source="r_dv8OJ-SXDnoj9roJnh-96" target="r_dv8OJ-SXDnoj9roJnh-101">
          <mxGeometry relative="1" as="geometry">
            <mxPoint x="260" y="790" as="targetPoint" />
          </mxGeometry>
        </mxCell>
        <mxCell id="r_dv8OJ-SXDnoj9roJnh-103" value="non" style="edgeLabel;html=1;align=center;verticalAlign=middle;resizable=0;points=[];" vertex="1" connectable="0" parent="r_dv8OJ-SXDnoj9roJnh-102">
          <mxGeometry relative="1" as="geometry">
            <mxPoint as="offset" />
          </mxGeometry>
        </mxCell>
        <mxCell id="r_dv8OJ-SXDnoj9roJnh-96" value="Est-ce que le &lt;br&gt;plateau est vide ?" style="rounded=1;whiteSpace=wrap;html=1;" vertex="1" parent="WIyWlLk6GJQsqaUBKTNV-1">
          <mxGeometry x="120" y="760" width="120" height="60" as="geometry" />
        </mxCell>
        <mxCell id="r_dv8OJ-SXDnoj9roJnh-132" style="edgeStyle=orthogonalEdgeStyle;rounded=0;orthogonalLoop=1;jettySize=auto;html=1;exitX=0;exitY=0.5;exitDx=0;exitDy=0;entryX=0;entryY=0.5;entryDx=0;entryDy=0;fillColor=#ffe6cc;strokeColor=#d79b00;" edge="1" parent="WIyWlLk6GJQsqaUBKTNV-1" source="r_dv8OJ-SXDnoj9roJnh-97" target="r_dv8OJ-SXDnoj9roJnh-96">
          <mxGeometry relative="1" as="geometry" />
        </mxCell>
        <mxCell id="r_dv8OJ-SXDnoj9roJnh-133" value="continue" style="edgeLabel;html=1;align=center;verticalAlign=middle;resizable=0;points=[];" vertex="1" connectable="0" parent="r_dv8OJ-SXDnoj9roJnh-132">
          <mxGeometry x="0.0357" relative="1" as="geometry">
            <mxPoint as="offset" />
          </mxGeometry>
        </mxCell>
        <mxCell id="r_dv8OJ-SXDnoj9roJnh-97" value="Joue colonne 3" style="rounded=1;whiteSpace=wrap;html=1;fillColor=#d5e8d4;strokeColor=#82b366;" vertex="1" parent="WIyWlLk6GJQsqaUBKTNV-1">
          <mxGeometry x="120" y="860" width="120" height="60" as="geometry" />
        </mxCell>
        <mxCell id="r_dv8OJ-SXDnoj9roJnh-108" style="edgeStyle=orthogonalEdgeStyle;rounded=0;orthogonalLoop=1;jettySize=auto;html=1;exitX=0.5;exitY=1;exitDx=0;exitDy=0;entryX=0.5;entryY=0;entryDx=0;entryDy=0;fillColor=#d5e8d4;strokeColor=#82b366;" edge="1" parent="WIyWlLk6GJQsqaUBKTNV-1" source="r_dv8OJ-SXDnoj9roJnh-101" target="r_dv8OJ-SXDnoj9roJnh-104">
          <mxGeometry relative="1" as="geometry" />
        </mxCell>
        <mxCell id="r_dv8OJ-SXDnoj9roJnh-109" value="oui" style="edgeLabel;html=1;align=center;verticalAlign=middle;resizable=0;points=[];" vertex="1" connectable="0" parent="r_dv8OJ-SXDnoj9roJnh-108">
          <mxGeometry relative="1" as="geometry">
            <mxPoint as="offset" />
          </mxGeometry>
        </mxCell>
        <mxCell id="r_dv8OJ-SXDnoj9roJnh-110" style="edgeStyle=orthogonalEdgeStyle;rounded=0;orthogonalLoop=1;jettySize=auto;html=1;exitX=1;exitY=0.5;exitDx=0;exitDy=0;fillColor=#f8cecc;strokeColor=#b85450;entryX=0;entryY=0.5;entryDx=0;entryDy=0;" edge="1" parent="WIyWlLk6GJQsqaUBKTNV-1" source="r_dv8OJ-SXDnoj9roJnh-101" target="r_dv8OJ-SXDnoj9roJnh-115">
          <mxGeometry relative="1" as="geometry">
            <mxPoint x="480" y="790.0000000000002" as="targetPoint" />
          </mxGeometry>
        </mxCell>
        <mxCell id="r_dv8OJ-SXDnoj9roJnh-111" value="non" style="edgeLabel;html=1;align=center;verticalAlign=middle;resizable=0;points=[];" vertex="1" connectable="0" parent="r_dv8OJ-SXDnoj9roJnh-110">
          <mxGeometry relative="1" as="geometry">
            <mxPoint as="offset" />
          </mxGeometry>
        </mxCell>
        <mxCell id="r_dv8OJ-SXDnoj9roJnh-101" value="Vérifier que l&#39;adversaire a 2 pions sur la ligne 5, côte à côte, avec une case vide de chaque côté des pions" style="rounded=1;whiteSpace=wrap;html=1;" vertex="1" parent="WIyWlLk6GJQsqaUBKTNV-1">
          <mxGeometry x="280" y="750" width="160" height="80" as="geometry" />
        </mxCell>
        <mxCell id="r_dv8OJ-SXDnoj9roJnh-104" value="Bloquer le piège en jouant la colonne la plus proche du centre." style="rounded=1;whiteSpace=wrap;html=1;" vertex="1" parent="WIyWlLk6GJQsqaUBKTNV-1">
          <mxGeometry x="295" y="860" width="130" height="70" as="geometry" />
        </mxCell>
        <mxCell id="r_dv8OJ-SXDnoj9roJnh-113" style="edgeStyle=orthogonalEdgeStyle;rounded=0;orthogonalLoop=1;jettySize=auto;html=1;exitX=1;exitY=0.5;exitDx=0;exitDy=0;entryX=0;entryY=0.5;entryDx=0;entryDy=0;fillColor=#d5e8d4;strokeColor=#82b366;" edge="1" parent="WIyWlLk6GJQsqaUBKTNV-1" source="r_dv8OJ-SXDnoj9roJnh-115" target="r_dv8OJ-SXDnoj9roJnh-116">
          <mxGeometry relative="1" as="geometry" />
        </mxCell>
        <mxCell id="r_dv8OJ-SXDnoj9roJnh-114" value="oui" style="edgeLabel;html=1;align=center;verticalAlign=middle;resizable=0;points=[];" vertex="1" connectable="0" parent="r_dv8OJ-SXDnoj9roJnh-113">
          <mxGeometry relative="1" as="geometry">
            <mxPoint as="offset" />
          </mxGeometry>
        </mxCell>
        <mxCell id="r_dv8OJ-SXDnoj9roJnh-125" style="edgeStyle=orthogonalEdgeStyle;rounded=0;orthogonalLoop=1;jettySize=auto;html=1;exitX=0.5;exitY=1;exitDx=0;exitDy=0;entryX=0.5;entryY=0;entryDx=0;entryDy=0;fillColor=#f8cecc;strokeColor=#b85450;" edge="1" parent="WIyWlLk6GJQsqaUBKTNV-1" source="r_dv8OJ-SXDnoj9roJnh-115" target="r_dv8OJ-SXDnoj9roJnh-123">
          <mxGeometry relative="1" as="geometry" />
        </mxCell>
        <mxCell id="r_dv8OJ-SXDnoj9roJnh-126" value="non" style="edgeLabel;html=1;align=center;verticalAlign=middle;resizable=0;points=[];" vertex="1" connectable="0" parent="r_dv8OJ-SXDnoj9roJnh-125">
          <mxGeometry relative="1" as="geometry">
            <mxPoint as="offset" />
          </mxGeometry>
        </mxCell>
        <mxCell id="r_dv8OJ-SXDnoj9roJnh-115" value="Vérifier les victoires immédiates" style="rounded=1;whiteSpace=wrap;html=1;" vertex="1" parent="WIyWlLk6GJQsqaUBKTNV-1">
          <mxGeometry x="480" y="760" width="120" height="60" as="geometry" />
        </mxCell>
        <mxCell id="r_dv8OJ-SXDnoj9roJnh-116" value="Jouer le coup pour la victoire" style="rounded=1;whiteSpace=wrap;html=1;fillColor=#d5e8d4;strokeColor=#82b366;" vertex="1" parent="WIyWlLk6GJQsqaUBKTNV-1">
          <mxGeometry x="640" y="760" width="120" height="60" as="geometry" />
        </mxCell>
        <mxCell id="r_dv8OJ-SXDnoj9roJnh-121" style="edgeStyle=orthogonalEdgeStyle;rounded=0;orthogonalLoop=1;jettySize=auto;html=1;exitX=1;exitY=0.5;exitDx=0;exitDy=0;entryX=0;entryY=0.5;entryDx=0;entryDy=0;fillColor=#d5e8d4;strokeColor=#82b366;" edge="1" parent="WIyWlLk6GJQsqaUBKTNV-1" source="r_dv8OJ-SXDnoj9roJnh-123" target="r_dv8OJ-SXDnoj9roJnh-124">
          <mxGeometry relative="1" as="geometry" />
        </mxCell>
        <mxCell id="r_dv8OJ-SXDnoj9roJnh-122" value="oui" style="edgeLabel;html=1;align=center;verticalAlign=middle;resizable=0;points=[];" vertex="1" connectable="0" parent="r_dv8OJ-SXDnoj9roJnh-121">
          <mxGeometry relative="1" as="geometry">
            <mxPoint as="offset" />
          </mxGeometry>
        </mxCell>
        <mxCell id="r_dv8OJ-SXDnoj9roJnh-128" style="edgeStyle=orthogonalEdgeStyle;rounded=0;orthogonalLoop=1;jettySize=auto;html=1;exitX=0.5;exitY=1;exitDx=0;exitDy=0;entryX=0.5;entryY=0;entryDx=0;entryDy=0;fillColor=#f8cecc;strokeColor=#b85450;" edge="1" parent="WIyWlLk6GJQsqaUBKTNV-1" source="r_dv8OJ-SXDnoj9roJnh-123" target="r_dv8OJ-SXDnoj9roJnh-127">
          <mxGeometry relative="1" as="geometry" />
        </mxCell>
        <mxCell id="r_dv8OJ-SXDnoj9roJnh-129" value="non" style="edgeLabel;html=1;align=center;verticalAlign=middle;resizable=0;points=[];" vertex="1" connectable="0" parent="r_dv8OJ-SXDnoj9roJnh-128">
          <mxGeometry x="-0.1731" relative="1" as="geometry">
            <mxPoint as="offset" />
          </mxGeometry>
        </mxCell>
        <mxCell id="r_dv8OJ-SXDnoj9roJnh-123" value="Vérifier les défaites immédiates" style="rounded=1;whiteSpace=wrap;html=1;" vertex="1" parent="WIyWlLk6GJQsqaUBKTNV-1">
          <mxGeometry x="480" y="865" width="120" height="60" as="geometry" />
        </mxCell>
        <mxCell id="r_dv8OJ-SXDnoj9roJnh-146" style="edgeStyle=orthogonalEdgeStyle;rounded=0;orthogonalLoop=1;jettySize=auto;html=1;exitX=1;exitY=0.5;exitDx=0;exitDy=0;entryX=0.75;entryY=0;entryDx=0;entryDy=0;fillColor=#ffe6cc;strokeColor=#d79b00;" edge="1" parent="WIyWlLk6GJQsqaUBKTNV-1" source="r_dv8OJ-SXDnoj9roJnh-124" target="r_dv8OJ-SXDnoj9roJnh-96">
          <mxGeometry relative="1" as="geometry">
            <Array as="points">
              <mxPoint x="800" y="895" />
              <mxPoint x="800" y="720" />
              <mxPoint x="210" y="720" />
            </Array>
          </mxGeometry>
        </mxCell>
        <mxCell id="r_dv8OJ-SXDnoj9roJnh-147" value="continue" style="edgeLabel;html=1;align=center;verticalAlign=middle;resizable=0;points=[];" vertex="1" connectable="0" parent="r_dv8OJ-SXDnoj9roJnh-146">
          <mxGeometry relative="1" as="geometry">
            <mxPoint as="offset" />
          </mxGeometry>
        </mxCell>
        <mxCell id="r_dv8OJ-SXDnoj9roJnh-124" value="Jouer le coup pour bloquer la victoire adverse" style="rounded=1;whiteSpace=wrap;html=1;fillColor=#d5e8d4;strokeColor=#82b366;" vertex="1" parent="WIyWlLk6GJQsqaUBKTNV-1">
          <mxGeometry x="640" y="865" width="120" height="60" as="geometry" />
        </mxCell>
        <mxCell id="r_dv8OJ-SXDnoj9roJnh-131" style="edgeStyle=orthogonalEdgeStyle;rounded=0;orthogonalLoop=1;jettySize=auto;html=1;exitX=0;exitY=0.5;exitDx=0;exitDy=0;entryX=0.5;entryY=1;entryDx=0;entryDy=0;fillColor=#f8cecc;strokeColor=#b85450;" edge="1" parent="WIyWlLk6GJQsqaUBKTNV-1" source="r_dv8OJ-SXDnoj9roJnh-127" target="r_dv8OJ-SXDnoj9roJnh-97">
          <mxGeometry relative="1" as="geometry" />
        </mxCell>
        <mxCell id="r_dv8OJ-SXDnoj9roJnh-134" value="non" style="edgeLabel;html=1;align=center;verticalAlign=middle;resizable=0;points=[];" vertex="1" connectable="0" parent="r_dv8OJ-SXDnoj9roJnh-131">
          <mxGeometry relative="1" as="geometry">
            <mxPoint as="offset" />
          </mxGeometry>
        </mxCell>
        <mxCell id="r_dv8OJ-SXDnoj9roJnh-136" style="edgeStyle=orthogonalEdgeStyle;rounded=0;orthogonalLoop=1;jettySize=auto;html=1;exitX=1;exitY=0.5;exitDx=0;exitDy=0;entryX=0;entryY=0.5;entryDx=0;entryDy=0;fillColor=#d5e8d4;strokeColor=#82b366;" edge="1" parent="WIyWlLk6GJQsqaUBKTNV-1" source="r_dv8OJ-SXDnoj9roJnh-127" target="r_dv8OJ-SXDnoj9roJnh-135">
          <mxGeometry relative="1" as="geometry" />
        </mxCell>
        <mxCell id="r_dv8OJ-SXDnoj9roJnh-137" value="oui" style="edgeLabel;html=1;align=center;verticalAlign=middle;resizable=0;points=[];" vertex="1" connectable="0" parent="r_dv8OJ-SXDnoj9roJnh-136">
          <mxGeometry relative="1" as="geometry">
            <mxPoint as="offset" />
          </mxGeometry>
        </mxCell>
        <mxCell id="r_dv8OJ-SXDnoj9roJnh-127" value="Est-ce que &lt;br&gt;la case(1,3) est remplie ?" style="rounded=1;whiteSpace=wrap;html=1;" vertex="1" parent="WIyWlLk6GJQsqaUBKTNV-1">
          <mxGeometry x="480" y="970" width="120" height="60" as="geometry" />
        </mxCell>
        <mxCell id="r_dv8OJ-SXDnoj9roJnh-148" style="edgeStyle=orthogonalEdgeStyle;rounded=0;orthogonalLoop=1;jettySize=auto;html=1;exitX=1;exitY=0.5;exitDx=0;exitDy=0;fillColor=#ffe6cc;strokeColor=#d79b00;" edge="1" parent="WIyWlLk6GJQsqaUBKTNV-1" source="r_dv8OJ-SXDnoj9roJnh-135">
          <mxGeometry relative="1" as="geometry">
            <mxPoint x="800" y="890" as="targetPoint" />
          </mxGeometry>
        </mxCell>
        <mxCell id="r_dv8OJ-SXDnoj9roJnh-149" value="Jouer le meilleur coup" style="edgeLabel;html=1;align=center;verticalAlign=middle;resizable=0;points=[];" vertex="1" connectable="0" parent="r_dv8OJ-SXDnoj9roJnh-148">
          <mxGeometry x="0.178" relative="1" as="geometry">
            <mxPoint as="offset" />
          </mxGeometry>
        </mxCell>
        <mxCell id="r_dv8OJ-SXDnoj9roJnh-135" value="Evaluation MiniMax" style="rounded=1;whiteSpace=wrap;html=1;" vertex="1" parent="WIyWlLk6GJQsqaUBKTNV-1">
          <mxGeometry x="640" y="970" width="120" height="60" as="geometry" />
        </mxCell>
        <mxCell id="r_dv8OJ-SXDnoj9roJnh-141" style="edgeStyle=orthogonalEdgeStyle;rounded=0;orthogonalLoop=1;jettySize=auto;html=1;exitX=0.5;exitY=1;exitDx=0;exitDy=0;entryX=0.5;entryY=0;entryDx=0;entryDy=0;" edge="1" parent="WIyWlLk6GJQsqaUBKTNV-1" source="r_dv8OJ-SXDnoj9roJnh-140" target="r_dv8OJ-SXDnoj9roJnh-96">
          <mxGeometry relative="1" as="geometry" />
        </mxCell>
        <mxCell id="r_dv8OJ-SXDnoj9roJnh-140" value="&lt;div&gt;Début&lt;/div&gt;&lt;div&gt;de&lt;/div&gt;&lt;div&gt;partie&lt;br&gt;&lt;/div&gt;" style="ellipse;whiteSpace=wrap;html=1;aspect=fixed;fillColor=#dae8fc;strokeColor=#6c8ebf;" vertex="1" parent="WIyWlLk6GJQsqaUBKTNV-1">
          <mxGeometry x="150" y="660" width="60" height="60" as="geometry" />
        </mxCell>
        <mxCell id="r_dv8OJ-SXDnoj9roJnh-142" value="" style="endArrow=none;html=1;rounded=0;exitX=0.5;exitY=1;exitDx=0;exitDy=0;fillColor=#ffe6cc;strokeColor=#d79b00;" edge="1" parent="WIyWlLk6GJQsqaUBKTNV-1" source="r_dv8OJ-SXDnoj9roJnh-104">
          <mxGeometry width="50" height="50" relative="1" as="geometry">
            <mxPoint x="410" y="890" as="sourcePoint" />
            <mxPoint x="360" y="960" as="targetPoint" />
          </mxGeometry>
        </mxCell>
        <mxCell id="r_dv8OJ-SXDnoj9roJnh-143" value="" style="endArrow=none;html=1;rounded=0;fillColor=#ffe6cc;strokeColor=#d79b00;" edge="1" parent="WIyWlLk6GJQsqaUBKTNV-1">
          <mxGeometry width="50" height="50" relative="1" as="geometry">
            <mxPoint x="100" y="960" as="sourcePoint" />
            <mxPoint x="360" y="960" as="targetPoint" />
          </mxGeometry>
        </mxCell>
        <mxCell id="r_dv8OJ-SXDnoj9roJnh-144" value="" style="endArrow=classic;html=1;rounded=0;fillColor=#ffe6cc;strokeColor=#d79b00;" edge="1" parent="WIyWlLk6GJQsqaUBKTNV-1">
          <mxGeometry width="50" height="50" relative="1" as="geometry">
            <mxPoint x="100" y="960" as="sourcePoint" />
            <mxPoint x="100" y="890" as="targetPoint" />
          </mxGeometry>
        </mxCell>
      </root>
    </mxGraphModel>
  </diagram>
</mxfile>
